<svg width="467" height="229" viewBox="0 0 467 229" fill="none" xmlns="http://www.w3.org/2000/svg">
<g clip-path="url(#clip0_591_6209)">
<path d="M162.05 145.51C163.73 143.22 165.45 140.95 167.08 138.62C189.29 106.9 211.5 75.1798 233.68 43.4298C234.53 42.2098 235.41 41.6798 236.96 41.6998C246.06 41.7798 255.16 41.7398 264.26 41.7398H266.3C266.3 42.5698 266.3 43.2198 266.3 43.8798C266.3 77.1098 266.29 110.34 266.33 143.57C266.33 145.21 266.02 145.79 264.22 145.75C258.46 145.62 252.69 145.7 246.93 145.7C246.32 145.7 245.7 145.7 244.89 145.7V108.07C241.87 108.88 239.09 109.55 236.35 110.37C226 113.45 216.48 118.22 207.81 124.66C200.55 130.05 194.29 136.42 189.42 144.06C188.62 145.31 187.75 145.74 186.28 145.73C178.93 145.65 171.59 145.69 164.24 145.7C163.51 145.7 162.79 145.8 162.06 145.85C162.06 145.74 162.06 145.62 162.06 145.51H162.05ZM210.45 114.13C210.53 114.27 210.62 114.41 210.7 114.54C221.81 111.09 233.15 108.81 244.7 107.53V65.1998C233.11 81.7498 221.78 97.9398 210.45 114.12V114.13Z" fill="white"/>
<path d="M340.69 111.11C348.69 122.54 356.68 133.96 364.83 145.59C364.11 145.65 363.64 145.72 363.16 145.72C355.53 145.72 347.9 145.75 340.27 145.68C339.51 145.68 338.45 145.26 338.04 144.67C327.55 129.82 317.12 114.93 306.69 100.04C306.56 99.8596 306.48 99.6496 306.19 99.1196C306.95 99.1196 307.52 99.1296 308.09 99.1196C311.36 99.0396 314.7 99.3396 317.89 98.7796C327.18 97.1596 333.25 89.1796 332.68 79.8196C332.14 70.9396 324.82 63.7596 315.51 63.3196C309.97 63.0596 304.41 63.2696 298.63 63.2696C298.63 67.1396 298.63 70.9596 298.63 74.7696C298.63 97.8396 298.63 120.91 298.64 143.97C298.64 144.89 298.79 145.74 297.34 145.73C290.9 145.67 284.45 145.7 278.01 145.69C277.79 145.69 277.58 145.62 277.24 145.56V41.9096C277.51 41.8596 277.83 41.7596 278.14 41.7596C290.75 41.7596 303.36 41.5896 315.96 41.8296C337.71 42.2396 355.03 60.8696 354.13 82.5996C353.68 93.4496 349.45 102.58 341.57 110.03C341.36 110.22 341.16 110.42 340.97 110.63C340.9 110.71 340.86 110.82 340.7 111.1L340.69 111.11Z" fill="white"/>
<path d="M466.29 77.6098C461.58 77.6098 457.01 77.6098 452.44 77.6098C449.78 77.6098 447.13 77.5598 444.47 77.6298C443.4 77.6598 442.76 77.3498 442.13 76.4198C430.48 59.1698 406.49 57.4798 392.57 72.9098C378.38 88.6398 384.04 114.18 403.57 122.54C417.73 128.6 433.63 123.84 442.25 111C442.57 110.52 443.25 109.97 443.76 109.97C451.21 109.9 458.67 109.92 466.15 109.92C461.59 127.11 442.58 146.84 415.52 146.6C388.73 146.36 366.42 125.88 363.51 99.7498C360.33 71.1798 380.07 46.4898 406.42 41.7698C435.44 36.5698 459.45 55.1398 466.28 77.6098H466.29Z" fill="white"/>
<path d="M115.01 86.61C115.01 86.61 104.63 71.73 83.6599 80.6C62.6899 89.47 54.2499 122.04 115.19 161.44C175.93 121.75 167.33 89.22 146.32 80.45C125.31 71.68 115 86.61 115 86.61H115.01Z" fill="white"/>
<path d="M96.55 211.9L95.86 227.37C43.6 218.93 3.78 175.4 0 122.59L17.38 123.36L18.57 96.63L1.19 95.86C9.63 43.6 53.16 3.78 105.96 0L105.22 16.56L131.95 17.75L132.69 1.19C168.71 7.01 198.83 29.5 215.3 60.21L193.28 73.3C179.1 46.02 151.15 26.84 118.22 25.38C69.12 23.2 27.55 61.23 25.37 110.33C23.19 159.43 61.22 201 110.32 203.18" fill="#FFE600"/>
<path d="M220.28 153.83C205.91 201.77 175.61 223.33 123.78 228.46L124.31 211.9L97.57 211.04L97.04 227.61C60.95 222.23 30.56 200.1 13.72 169.59L35.58 156.23C50.09 183.34 78.27 202.18 111.22 203.24C160.34 204.82 186.31 169.88 193.44 151.34" fill="#FFE600"/>
<path d="M162.53 166.91C149.16 178.7 131.39 185.53 112.17 184.68C72.8001 182.93 42.3001 149.6 44.0501 110.23C45.8001 70.8601 79.1301 40.3601 118.5 42.1101C145.27 43.3001 167.93 59.0901 179.15 81.4501L181.95 79.7801C170.18 56.5101 146.55 40.1001 118.64 38.8601C77.4701 37.0301 42.6201 68.9201 40.7901 110.09C38.9601 151.26 70.8501 186.11 112.02 187.94C131.95 188.83 150.39 181.81 164.33 169.66" fill="#FFE600"/>
</g>
<defs>
<clipPath id="clip0_591_6209">
<rect width="466.29" height="228.46" fill="white"/>
</clipPath>
</defs>
</svg>
